<svg xmlns="http://www.w3.org/2000/svg"
     width="20px" height="20px"
     viewBox="0 0 512 512">
  <path id="Selection"
        d="M 83.00,27.00
           C 83.00,27.00 126.00,27.00 126.00,27.00
             126.00,27.00 133.48,27.99 133.48,27.99
             133.48,27.99 141.00,38.00 141.00,38.00
             141.00,38.00 156.00,61.00 156.00,61.00
             156.00,61.00 195.00,121.00 195.00,121.00
             195.00,121.00 212.67,148.00 212.67,148.00
             212.67,148.00 228.00,172.00 228.00,172.00
             228.00,172.00 185.00,172.00 185.00,172.00
             185.00,172.00 177.52,171.01 177.52,171.01
             177.52,171.01 170.00,161.00 170.00,161.00
             170.00,161.00 155.67,139.00 155.67,139.00
             155.67,139.00 108.66,67.00 108.66,67.00
             108.66,67.00 83.00,27.00 83.00,27.00 Z
           M 282.00,172.00
           C 282.00,172.00 302.58,139.00 302.58,139.00
             302.58,139.00 353.67,60.00 353.67,60.00
             353.67,60.00 368.00,38.00 368.00,38.00
             368.00,38.00 375.33,28.02 375.33,28.02
             375.33,28.02 383.00,27.00 383.00,27.00
             383.00,27.00 426.00,27.00 426.00,27.00
             426.00,27.00 403.05,63.00 403.05,63.00
             403.05,63.00 354.66,138.00 354.66,138.00
             354.66,138.00 339.67,161.00 339.67,161.00
             339.67,161.00 332.47,171.01 332.47,171.01
             332.47,171.01 325.00,172.00 325.00,172.00
             325.00,172.00 282.00,172.00 282.00,172.00 Z
           M 91.00,196.00
           C 91.00,196.00 422.00,196.00 422.00,196.00
             422.00,196.00 422.00,236.00 422.00,236.00
             422.00,236.00 91.00,236.00 91.00,236.00
             91.00,236.00 91.00,196.00 91.00,196.00 Z
           M 91.00,276.00
           C 91.00,276.00 422.00,276.00 422.00,276.00
             422.00,276.00 422.00,316.00 422.00,316.00
             422.00,316.00 91.00,316.00 91.00,316.00
             91.00,316.00 91.00,276.00 91.00,276.00 Z
           M 79.00,485.00
           C 79.00,485.00 103.31,447.00 103.31,447.00
             103.31,447.00 150.42,374.00 150.42,374.00
             150.42,374.00 165.33,351.00 165.33,351.00
             165.33,351.00 172.61,340.99 172.61,340.99
             172.61,340.99 180.00,340.00 180.00,340.00
             180.00,340.00 223.00,340.00 223.00,340.00
             223.00,340.00 202.42,373.00 202.42,373.00
             202.42,373.00 151.33,452.00 151.33,452.00
             151.33,452.00 137.05,474.00 137.05,474.00
             137.05,474.00 129.68,483.98 129.68,483.98
             129.68,483.98 122.00,485.00 122.00,485.00
             122.00,485.00 79.00,485.00 79.00,485.00 Z
           M 288.00,340.00
           C 288.00,340.00 330.00,340.00 330.00,340.00
             330.00,340.00 337.82,341.02 337.82,341.02
             337.82,341.02 346.05,352.00 346.05,352.00
             346.05,352.00 360.66,374.00 360.66,374.00
             360.66,374.00 405.00,442.00 405.00,442.00
             405.00,442.00 423.34,470.00 423.34,470.00
             423.34,470.00 433.00,485.00 433.00,485.00
             433.00,485.00 390.00,485.00 390.00,485.00
             390.00,485.00 382.32,483.98 382.32,483.98
             382.32,483.98 374.67,474.00 374.67,474.00
             374.67,474.00 360.33,452.00 360.33,452.00
             360.33,452.00 312.66,379.00 312.66,379.00
             312.66,379.00 288.00,340.00 288.00,340.00 Z" />
</svg>
