<svg xmlns="http://www.w3.org/2000/svg" width="1em" height="1em" class="bi bi-box2-heart-fill" viewBox="0 0 16 16">
    <path id="Selection" fill="#dadada"
      d="M 3.69,0.22
           C 3.69,0.22 4.66,0.22 4.66,0.22
             4.66,0.22 6.51,0.22 6.51,0.22
             6.51,0.22 12.15,0.22 12.15,0.22
             12.40,0.22 12.64,0.31 12.83,0.48
             12.92,0.57 13.10,0.82 13.19,0.94
             13.19,0.94 14.37,2.52 14.37,2.52
             14.37,2.52 15.44,3.94 15.44,3.94
             15.54,4.07 15.76,4.34 15.81,4.48
             15.83,4.55 15.83,4.59 15.83,4.66
             15.83,4.66 15.83,13.32 15.83,13.32
             15.83,13.32 15.83,14.93 15.83,14.93
             15.83,15.48 15.40,15.91 14.85,15.91
             14.85,15.91 3.54,15.91 3.54,15.91
             3.54,15.91 1.12,15.91 1.12,15.91
             0.57,15.91 0.14,15.48 0.14,14.93
             0.14,14.93 0.14,4.66 0.14,4.66
             0.14,4.38 0.33,4.20 0.49,3.99
             0.49,3.99 1.46,2.70 1.46,2.70
             1.46,2.70 2.72,1.02 2.72,1.02
             2.84,0.86 3.05,0.55 3.19,0.44
             3.34,0.31 3.50,0.26 3.69,0.22 Z" />
  <path d="M3.75 0a1 1 0 0 0-.8.4L.1 4.2a.5.5 0 0 0-.1.3V15a1 1 0 0 0 1 1h14a1 1 0 0 0 1-1V4.5a.5.5 0 0 0-.1-.3L13.05.4a1 1 0 0 0-.8-.4h-8.5ZM15 4.667V5H1v-.333L1.5 4h6V1h1v3h6l.5.667Z"/>
  <path fill="#dadada"
        d="M 7.81,6.57
           C 8.09,6.54 8.58,6.58 8.86,6.64
             10.28,6.92 11.41,7.94 11.86,9.31
             11.97,9.62 12.03,9.93 12.05,10.25
             12.05,10.25 12.06,10.41 12.06,10.41
             12.06,10.41 12.06,10.69 12.06,10.69
             12.06,10.85 12.03,11.08 12.01,11.23
             11.85,12.14 11.40,12.94 10.72,13.56
             10.47,13.79 10.20,13.96 9.91,14.12
             9.46,14.36 8.88,14.51 8.38,14.55
             8.38,14.55 8.19,14.56 8.19,14.56
             8.19,14.56 7.91,14.56 7.91,14.56
             7.91,14.56 7.75,14.55 7.75,14.55
             7.42,14.53 7.11,14.46 6.80,14.36
             6.29,14.19 5.82,13.92 5.42,13.57
             4.06,12.38 3.67,10.39 4.48,8.77
             4.92,7.88 5.73,7.15 6.66,6.81
             6.93,6.71 7.22,6.64 7.52,6.60
             7.52,6.60 7.81,6.57 7.81,6.57 Z
           M 7.86,7.07
           C 7.86,7.07 7.67,7.08 7.67,7.08
             7.41,7.11 7.15,7.17 6.91,7.26
             6.04,7.55 5.31,8.21 4.91,9.03
             4.15,10.60 4.67,12.56 6.16,13.50
             6.44,13.68 6.72,13.82 7.05,13.91
             7.29,13.98 7.53,14.03 7.78,14.05
             7.78,14.05 7.94,14.06 7.94,14.06
             8.53,14.07 9.07,13.97 9.61,13.71
             10.00,13.52 10.35,13.25 10.64,12.94
             11.64,11.86 11.85,10.20 11.15,8.91
             10.91,8.47 10.57,8.07 10.17,7.76
             9.85,7.52 9.46,7.32 9.06,7.21
             8.71,7.11 8.22,7.03 7.86,7.07 Z
           M 7.89,8.32
           C 8.41,8.26 9.08,8.46 9.31,8.97
             9.37,9.10 9.40,9.27 9.41,9.41
             9.41,9.54 9.37,9.74 9.32,9.86
             9.14,10.30 8.75,10.43 8.45,10.73
             8.37,10.83 8.30,10.94 8.29,11.06
             8.27,11.15 8.30,11.29 8.23,11.35
             8.19,11.38 8.13,11.37 8.08,11.37
             8.08,11.37 7.78,11.37 7.78,11.37
             7.63,11.37 7.63,11.32 7.62,11.19
             7.62,11.19 7.62,11.05 7.62,11.05
             7.63,10.72 7.81,10.46 8.06,10.26
             8.37,10.00 8.78,9.81 8.67,9.33
             8.55,8.83 7.82,8.76 7.52,9.09
             7.47,9.15 7.42,9.24 7.39,9.31
             7.34,9.46 7.38,9.58 7.17,9.58
             7.17,9.58 6.86,9.58 6.86,9.58
             6.66,9.58 6.68,9.46 6.71,9.31
             6.74,9.10 6.82,8.90 6.96,8.73
             7.20,8.45 7.54,8.37 7.89,8.32 Z
           M 7.97,11.87
           C 8.07,11.87 8.16,11.88 8.25,11.93
             8.49,12.06 8.57,12.41 8.39,12.62
             8.27,12.76 8.13,12.80 7.95,12.80
             7.67,12.79 7.46,12.60 7.47,12.31
             7.47,12.24 7.50,12.14 7.54,12.08
             7.65,11.92 7.78,11.88 7.97,11.87 Z" />
</svg>